<svg width="278" height="38" viewBox="0 0 278 38" fill="none" xmlns="http://www.w3.org/2000/svg">
<path d="M6.90179 30.7516C6.80305 30.7516 6.71841 30.7164 6.64787 30.646C6.59145 30.5755 6.56323 30.4981 6.56323 30.4135V14.5873C6.56323 14.5169 6.59145 14.4465 6.64787 14.376L9.25055 11.3545H6.90179C6.80305 11.3545 6.71841 11.3193 6.64787 11.2488C6.59145 11.1784 6.56323 11.1009 6.56323 11.0164V4.59296C6.56323 4.49435 6.59145 4.41688 6.64787 4.36053C6.71841 4.2901 6.80305 4.25488 6.90179 4.25488H25.1629C25.3039 4.25488 25.4238 4.31123 25.5226 4.42392L27.956 7.23418C28.0406 7.33279 28.0829 7.43843 28.0829 7.55113V27.4554C28.0829 27.5681 28.0406 27.6667 27.956 27.7512L25.5226 30.5826C25.4379 30.6671 25.3463 30.7234 25.2475 30.7516C25.2193 30.7516 25.1981 30.7516 25.184 30.7516H6.90179ZM13.673 11.3545V26.7792L16.3603 23.652H20.9732V11.3545H13.673Z" fill="black"/>
<path d="M30.1355 30.7516C30.0367 30.7516 29.9521 30.7164 29.8815 30.646C29.8251 30.5755 29.7969 30.4981 29.7969 30.4135V14.5873C29.7969 14.5169 29.8251 14.4465 29.8815 14.376L32.4842 11.3545H30.1355C30.0367 11.3545 29.9521 11.3193 29.8815 11.2488C29.8251 11.1784 29.7969 11.1009 29.7969 11.0164V7.55113C29.7969 7.43843 29.8322 7.33279 29.9027 7.23418L32.3573 4.40279C32.456 4.30419 32.5689 4.25488 32.6958 4.25488H48.3331C48.4741 4.25488 48.594 4.30419 48.6928 4.40279L51.1262 7.23418C51.2108 7.33279 51.2531 7.43843 51.2531 7.55113V19.9332C51.2531 19.9613 51.2461 19.9895 51.232 20.0177C51.232 20.0459 51.2249 20.074 51.2108 20.1022C51.2108 20.1163 51.2038 20.1233 51.1897 20.1233C51.1756 20.1656 51.1544 20.2008 51.1262 20.229L48.6928 23.0604C48.6081 23.1449 48.5164 23.1942 48.4177 23.2083C48.3895 23.2224 48.3683 23.2294 48.3542 23.2294C48.3401 23.2294 48.3331 23.2294 48.3331 23.2294H47.8887L50.576 25.6171V29.7374L49.518 30.7727H45.3918L37.8165 23.2294H36.9067V27.4554C36.9067 27.4835 36.8996 27.5117 36.8855 27.5399C36.8855 27.5681 36.8784 27.5962 36.8643 27.6244C36.8643 27.6385 36.8573 27.6455 36.8432 27.6455C36.8291 27.6878 36.8079 27.723 36.7797 27.7512L34.3463 30.5826C34.2617 30.6671 34.17 30.7164 34.0712 30.7305C34.043 30.7446 34.0219 30.7516 34.0077 30.7516C33.9936 30.7516 33.9866 30.7516 33.9866 30.7516H30.1355ZM36.9067 11.3545V16.1298H44.1434V11.3545H36.9067Z" fill="black"/>
<path d="M53.2845 30.7516C53.1999 30.7516 53.1223 30.7164 53.0517 30.646C52.9812 30.5755 52.9459 30.4981 52.9459 30.4135V15.7917L59.5267 4.42392C59.5972 4.31123 59.696 4.25488 59.8229 4.25488H67.631C67.7579 4.25488 67.8567 4.31123 67.9272 4.42392L74.4868 15.7706V27.4554C74.4868 27.4835 74.4868 27.5117 74.4868 27.5399C74.4727 27.5681 74.4657 27.5892 74.4657 27.6033C74.4515 27.6174 74.4445 27.6314 74.4445 27.6455C74.4304 27.6878 74.4092 27.723 74.381 27.7512L71.9265 30.5826C71.8559 30.6671 71.7642 30.7164 71.6514 30.7305C71.6373 30.7446 71.6161 30.7516 71.5879 30.7516C71.5879 30.7516 71.5808 30.7516 71.5667 30.7516H67.5463C67.504 30.7516 67.4617 30.7375 67.4194 30.7094C67.3912 30.6671 67.3771 30.6248 67.3771 30.5826V25.9974H60.0557V27.4554C60.0557 27.4835 60.0557 27.5117 60.0557 27.5399C60.0416 27.5681 60.0345 27.5892 60.0345 27.6033C60.0204 27.6174 60.0134 27.6314 60.0134 27.6455C59.9993 27.6878 59.9781 27.723 59.9499 27.7512L57.4953 30.5826C57.4248 30.6671 57.3331 30.7164 57.2203 30.7305C57.2061 30.7446 57.185 30.7516 57.1568 30.7516C57.1568 30.7516 57.1497 30.7516 57.1356 30.7516H53.2845ZM63.7164 11.3545L60.0557 17.6934V21.5602L63.1451 18.8978H67.3771V17.6723L63.7164 11.3545Z" fill="black"/>
<path d="M78.7611 30.6248L76.2431 27.7301C76.2008 27.6596 76.1796 27.5821 76.1796 27.4976V7.55113C76.1796 7.43843 76.2149 7.33279 76.2854 7.23418L78.74 4.42392C78.8387 4.31123 78.9516 4.25488 79.0785 4.25488H93.0018C93.1288 4.25488 93.2487 4.31123 93.3615 4.42392L95.7949 7.23418C95.8796 7.33279 95.9219 7.43843 95.9219 7.55113V11.0164C95.9219 11.1009 95.8866 11.1784 95.8161 11.2488C95.7455 11.3193 95.668 11.3545 95.5833 11.3545H83.2894V26.7581L85.9767 23.652H95.5833C95.668 23.652 95.7455 23.6872 95.8161 23.7577C95.8866 23.814 95.9219 23.8915 95.9219 23.9901V27.4554C95.9219 27.4835 95.9148 27.5117 95.9007 27.5399C95.9007 27.5681 95.8937 27.5962 95.8796 27.6244C95.8796 27.6385 95.8725 27.6455 95.8584 27.6455C95.8443 27.6878 95.8231 27.723 95.7949 27.7512L93.3615 30.5826C93.2769 30.6671 93.1852 30.7234 93.0864 30.7516C93.0723 30.7516 93.0582 30.7516 93.0441 30.7516H79.015C78.9163 30.7516 78.8317 30.7094 78.7611 30.6248Z" fill="black"/>
<path d="M100.323 30.7305L97.6358 27.6244V8.12163C97.6358 7.99485 97.6711 7.87512 97.7416 7.76242L100.196 4.44505C100.295 4.31827 100.415 4.25488 100.556 4.25488H104.28C104.407 4.25488 104.513 4.31123 104.597 4.42392C104.696 4.52253 104.746 4.64931 104.746 4.80426V23.6309H109.232L111.94 26.7581V8.12163C111.94 7.99485 111.975 7.87512 112.046 7.76242L114.5 4.44505C114.599 4.31827 114.719 4.25488 114.86 4.25488H118.584C118.711 4.25488 118.817 4.31123 118.902 4.42392C119 4.52253 119.05 4.64931 119.05 4.80426V27.6244L116.341 30.7305H100.323Z" fill="black"/>
<path d="M121.081 30.7516C120.982 30.7516 120.898 30.7164 120.827 30.646C120.771 30.5755 120.743 30.4981 120.743 30.4135V7.55113C120.743 7.45252 120.771 7.36096 120.827 7.27644C120.841 7.26235 120.848 7.24827 120.848 7.23418L123.303 4.42392C123.402 4.31123 123.522 4.25488 123.663 4.25488H127.514C127.612 4.25488 127.69 4.2901 127.747 4.36053C127.817 4.41688 127.852 4.49435 127.852 4.59296V26.7792L130.561 23.652H141.86C141.959 23.652 142.037 23.6872 142.093 23.7577C142.164 23.814 142.199 23.8915 142.199 23.9901V27.4554C142.199 27.4835 142.199 27.5117 142.199 27.5399C142.185 27.5681 142.178 27.5962 142.178 27.6244C142.164 27.6385 142.156 27.6455 142.156 27.6455C142.142 27.6878 142.121 27.723 142.093 27.7512L139.638 30.5826C139.568 30.6671 139.476 30.7234 139.363 30.7516C139.349 30.7516 139.328 30.7516 139.3 30.7516C139.3 30.7516 139.293 30.7516 139.279 30.7516H121.081Z" fill="black"/>
<path d="M144.23 30.7516C144.146 30.7516 144.068 30.7164 143.997 30.646C143.927 30.5755 143.892 30.4981 143.892 30.4135V15.7917L150.472 4.42392C150.543 4.31123 150.642 4.25488 150.769 4.25488H158.577C158.704 4.25488 158.802 4.31123 158.873 4.42392L165.432 15.7706V27.4554C165.432 27.4835 165.432 27.5117 165.432 27.5399C165.418 27.5681 165.411 27.5892 165.411 27.6033C165.397 27.6174 165.39 27.6314 165.39 27.6455C165.376 27.6878 165.355 27.723 165.327 27.7512L162.872 30.5826C162.802 30.6671 162.71 30.7164 162.597 30.7305C162.583 30.7446 162.562 30.7516 162.534 30.7516C162.534 30.7516 162.526 30.7516 162.512 30.7516H158.492C158.45 30.7516 158.407 30.7375 158.365 30.7094C158.337 30.6671 158.323 30.6248 158.323 30.5826V25.9974H151.001V27.4554C151.001 27.4835 151.001 27.5117 151.001 27.5399C150.987 27.5681 150.98 27.5892 150.98 27.6033C150.966 27.6174 150.959 27.6314 150.959 27.6455C150.945 27.6878 150.924 27.723 150.896 27.7512L148.441 30.5826C148.37 30.6671 148.279 30.7164 148.166 30.7305C148.152 30.7446 148.131 30.7516 148.102 30.7516C148.102 30.7516 148.095 30.7516 148.081 30.7516H144.23ZM154.662 11.3545L151.001 17.6934V21.5602L154.091 18.8978H158.323V17.6723L154.662 11.3545Z" fill="black"/>
<path d="M194.739 30.7516H180.562L177.875 27.6244V14.4606L180.562 11.3545H177.875V7.55113C177.875 7.43843 177.91 7.33279 177.98 7.23418L180.435 4.42392C180.534 4.31123 180.646 4.25488 180.773 4.25488H194.697C194.838 4.25488 194.958 4.31123 195.056 4.42392L197.49 7.23418C197.574 7.33279 197.617 7.43843 197.617 7.55113V11.3545H184.984V23.652H190.507V16.7214H194.908L197.617 19.8487V27.4976C197.617 27.5117 197.61 27.5258 197.596 27.5399C197.596 27.5681 197.589 27.5962 197.574 27.6244C197.574 27.6385 197.574 27.6455 197.574 27.6455C197.546 27.6878 197.518 27.723 197.49 27.7512L195.056 30.5826C194.972 30.6671 194.88 30.7234 194.781 30.7516C194.767 30.7516 194.753 30.7516 194.739 30.7516Z" fill="black"/>
<path d="M199.669 30.7516C199.585 30.7516 199.507 30.7164 199.437 30.646C199.366 30.5755 199.331 30.4981 199.331 30.4135V15.7917L205.912 4.42392C205.982 4.31123 206.081 4.25488 206.208 4.25488H214.016C214.143 4.25488 214.242 4.31123 214.312 4.42392L220.872 15.7706V27.4554C220.872 27.4835 220.872 27.5117 220.872 27.5399C220.858 27.5681 220.85 27.5892 220.85 27.6033C220.836 27.6174 220.829 27.6314 220.829 27.6455C220.815 27.6878 220.794 27.723 220.766 27.7512L218.311 30.5826C218.241 30.6671 218.149 30.7164 218.036 30.7305C218.022 30.7446 218.001 30.7516 217.973 30.7516C217.973 30.7516 217.966 30.7516 217.952 30.7516H213.931C213.889 30.7516 213.847 30.7375 213.804 30.7094C213.776 30.6671 213.762 30.6248 213.762 30.5826V25.9974H206.441V27.4554C206.441 27.4835 206.441 27.5117 206.441 27.5399C206.426 27.5681 206.419 27.5892 206.419 27.6033C206.405 27.6174 206.398 27.6314 206.398 27.6455C206.384 27.6878 206.363 27.723 206.335 27.7512L203.88 30.5826C203.81 30.6671 203.718 30.7164 203.605 30.7305C203.591 30.7446 203.57 30.7516 203.542 30.7516C203.542 30.7516 203.535 30.7516 203.52 30.7516H199.669ZM210.101 11.3545L206.441 17.6934V21.5602L209.53 18.8978H213.762V17.6723L210.101 11.3545Z" fill="black"/>
<path d="M222.903 30.7516C222.804 30.7516 222.72 30.7164 222.649 30.646C222.593 30.5755 222.564 30.4981 222.564 30.4135V14.4606L225.252 11.3545H222.903C222.804 11.3545 222.72 11.3193 222.649 11.2488C222.593 11.1784 222.564 11.1009 222.564 11.0164V7.55113C222.564 7.45252 222.593 7.36096 222.649 7.27644C222.649 7.26235 222.656 7.24827 222.67 7.23418L225.125 4.42392C225.224 4.31123 225.343 4.25488 225.485 4.25488H249.755C249.896 4.25488 250.016 4.31123 250.115 4.42392L252.548 7.23418C252.633 7.33279 252.675 7.43843 252.675 7.55113V27.4554C252.675 27.4835 252.668 27.5117 252.654 27.5399C252.654 27.5681 252.647 27.5962 252.633 27.6244C252.633 27.6385 252.633 27.6455 252.633 27.6455C252.605 27.6878 252.576 27.723 252.548 27.7512L250.115 30.5826C250.03 30.6671 249.938 30.7234 249.84 30.7516C249.811 30.7516 249.79 30.7516 249.776 30.7516C249.762 30.7516 249.755 30.7516 249.755 30.7516H245.904C245.805 30.7516 245.721 30.7164 245.65 30.646C245.594 30.5755 245.565 30.4981 245.565 30.4135V11.3545H241.164V27.4554C241.164 27.4835 241.164 27.5117 241.164 27.5399C241.164 27.5681 241.157 27.5962 241.143 27.6244C241.143 27.6385 241.136 27.6455 241.122 27.6455C241.108 27.6878 241.086 27.723 241.058 27.7512L238.604 30.5826C238.533 30.6671 238.441 30.7234 238.329 30.7516C238.315 30.7516 238.3 30.7516 238.286 30.7516C238.272 30.7516 238.265 30.7516 238.265 30.7516H234.393C234.308 30.7516 234.231 30.7164 234.16 30.646C234.09 30.5755 234.054 30.4981 234.054 30.4135V11.3545H229.674V27.4554C229.674 27.4835 229.667 27.5117 229.653 27.5399C229.653 27.5681 229.646 27.5962 229.632 27.6244C229.632 27.6385 229.632 27.6455 229.632 27.6455C229.604 27.6878 229.575 27.723 229.547 27.7512L227.114 30.5826C227.029 30.6671 226.938 30.7234 226.839 30.7516C226.811 30.7516 226.789 30.7516 226.775 30.7516C226.761 30.7516 226.754 30.7516 226.754 30.7516H222.903Z" fill="black"/>
<path d="M271.275 30.7516H257.098L254.389 27.6244V7.55113C254.389 7.43843 254.431 7.33279 254.516 7.23418L256.971 4.42392C257.069 4.31123 257.182 4.25488 257.309 4.25488H271.232C271.359 4.25488 271.472 4.31123 271.571 4.42392L274.026 7.23418C274.11 7.33279 274.153 7.43843 274.153 7.55113V11.0164C274.153 11.1009 274.117 11.1784 274.047 11.2488C273.976 11.3193 273.899 11.3545 273.814 11.3545H261.499V13.9534H266.873C266.93 13.9534 266.986 13.9675 267.043 13.9957C267.156 14.0521 267.212 14.1507 267.212 14.2915V18.2005C267.212 18.2991 267.177 18.3837 267.106 18.4541L267.043 18.5175L264.186 20.9685C264.13 21.0249 264.059 21.053 263.975 21.053H261.499V26.7581L264.207 23.652H273.814C273.899 23.652 273.976 23.6872 274.047 23.7577C274.117 23.814 274.153 23.8915 274.153 23.9901V27.4554C274.153 27.4835 274.145 27.5117 274.131 27.5399C274.131 27.5681 274.124 27.5962 274.11 27.6244C274.11 27.6385 274.103 27.6455 274.089 27.6455C274.075 27.6878 274.054 27.723 274.026 27.7512L271.571 30.5826C271.5 30.6671 271.416 30.7234 271.317 30.7516C271.303 30.7516 271.289 30.7516 271.275 30.7516Z" fill="black"/>
<g filter="url(#filter0_d_363_3092)">
<mask id="path-2-outside-1_363_3092" maskUnits="userSpaceOnUse" x="4.35791" y="0.84375" width="270" height="29" fill="black">
<rect fill="white" x="4.35791" y="0.84375" width="270" height="29"/>
<path d="M5.69647 28.3405C5.59772 28.3405 5.51308 28.3053 5.44255 28.2348C5.38612 28.1644 5.35791 28.0869 5.35791 28.0024V12.1762C5.35791 12.1058 5.38612 12.0353 5.44255 11.9649L8.04523 8.94335H5.69647C5.59772 8.94335 5.51308 8.90814 5.44255 8.8377C5.38612 8.76727 5.35791 8.68979 5.35791 8.60528V2.18183C5.35791 2.08322 5.38612 2.00574 5.44255 1.9494C5.51308 1.87897 5.59772 1.84375 5.69647 1.84375H23.9575C24.0986 1.84375 24.2185 1.9001 24.3173 2.01279L26.7507 4.82305C26.8353 4.92165 26.8776 5.0273 26.8776 5.13999V25.0442C26.8776 25.1569 26.8353 25.2555 26.7507 25.3401L24.3173 28.1714C24.2326 28.256 24.1409 28.3123 24.0422 28.3405C24.014 28.3405 23.9928 28.3405 23.9787 28.3405H5.69647ZM12.4677 8.94335V24.3681L15.155 21.2409H19.7679V8.94335H12.4677Z"/>
<path d="M28.9301 28.3405C28.8314 28.3405 28.7468 28.3053 28.6762 28.2348C28.6198 28.1644 28.5916 28.0869 28.5916 28.0024V12.1762C28.5916 12.1058 28.6198 12.0353 28.6762 11.9649L31.2789 8.94335H28.9301C28.8314 8.94335 28.7468 8.90814 28.6762 8.8377C28.6198 8.76727 28.5916 8.68979 28.5916 8.60528V5.13999C28.5916 5.0273 28.6268 4.92165 28.6974 4.82305L31.1519 1.99166C31.2507 1.89305 31.3635 1.84375 31.4905 1.84375H47.1277C47.2688 1.84375 47.3887 1.89305 47.4875 1.99166L49.9209 4.82305C50.0055 4.92165 50.0478 5.0273 50.0478 5.13999V17.522C50.0478 17.5502 50.0408 17.5784 50.0267 17.6066C50.0267 17.6347 50.0196 17.6629 50.0055 17.6911C50.0055 17.7052 49.9984 17.7122 49.9843 17.7122C49.9702 17.7545 49.9491 17.7897 49.9209 17.8179L47.4875 20.6492C47.4028 20.7338 47.3111 20.7831 47.2124 20.7972C47.1842 20.8112 47.163 20.8183 47.1489 20.8183C47.1348 20.8183 47.1277 20.8183 47.1277 20.8183H46.6834L49.3707 23.2059V27.3263L48.3127 28.3616H44.1865L36.6112 20.8183H35.7013V25.0442C35.7013 25.0724 35.6943 25.1006 35.6802 25.1288C35.6802 25.1569 35.6731 25.1851 35.659 25.2133C35.659 25.2274 35.652 25.2344 35.6379 25.2344C35.6238 25.2767 35.6026 25.3119 35.5744 25.3401L33.141 28.1714C33.0563 28.256 32.9646 28.3053 32.8659 28.3193C32.8377 28.3334 32.8165 28.3405 32.8024 28.3405C32.7883 28.3405 32.7813 28.3405 32.7813 28.3405H28.9301ZM35.7013 8.94335V13.7187H42.9381V8.94335H35.7013Z"/>
<path d="M52.0792 28.3405C51.9945 28.3405 51.9169 28.3053 51.8464 28.2348C51.7759 28.1644 51.7406 28.0869 51.7406 28.0024V13.3806L58.3214 2.01279C58.3919 1.9001 58.4907 1.84375 58.6176 1.84375H66.4257C66.5526 1.84375 66.6514 1.9001 66.7219 2.01279L73.2815 13.3595V25.0442C73.2815 25.0724 73.2815 25.1006 73.2815 25.1288C73.2674 25.1569 73.2603 25.1781 73.2603 25.1921C73.2462 25.2062 73.2392 25.2203 73.2392 25.2344C73.2251 25.2767 73.2039 25.3119 73.1757 25.3401L70.7211 28.1714C70.6506 28.256 70.5589 28.3053 70.446 28.3193C70.4319 28.3334 70.4108 28.3405 70.3826 28.3405C70.3826 28.3405 70.3755 28.3405 70.3614 28.3405H66.341C66.2987 28.3405 66.2564 28.3264 66.2141 28.2982C66.1858 28.256 66.1717 28.2137 66.1717 28.1714V23.5863H58.8504V25.0442C58.8504 25.0724 58.8504 25.1006 58.8504 25.1288C58.8363 25.1569 58.8292 25.1781 58.8292 25.1921C58.8151 25.2062 58.8081 25.2203 58.8081 25.2344C58.7939 25.2767 58.7728 25.3119 58.7446 25.3401L56.29 28.1714C56.2195 28.256 56.1278 28.3053 56.0149 28.3193C56.0008 28.3334 55.9797 28.3405 55.9515 28.3405C55.9515 28.3405 55.9444 28.3405 55.9303 28.3405H52.0792ZM62.5111 8.94335L58.8504 15.2823V19.149L61.9397 16.4867H66.1717V15.2612L62.5111 8.94335Z"/>
<path d="M77.5558 28.2137L75.0378 25.3189C74.9954 25.2485 74.9743 25.171 74.9743 25.0865V5.13999C74.9743 5.0273 75.0096 4.92165 75.0801 4.82305L77.5346 2.01279C77.6334 1.9001 77.7462 1.84375 77.8732 1.84375H91.7965C91.9234 1.84375 92.0434 1.9001 92.1562 2.01279L94.5896 4.82305C94.6742 4.92165 94.7166 5.0273 94.7166 5.13999V8.60528C94.7166 8.68979 94.6813 8.76727 94.6108 8.8377C94.5402 8.90814 94.4626 8.94335 94.378 8.94335H82.084V24.347L84.7714 21.2409H94.378C94.4626 21.2409 94.5402 21.2761 94.6108 21.3465C94.6813 21.4029 94.7166 21.4803 94.7166 21.579V25.0442C94.7166 25.0724 94.7095 25.1006 94.6954 25.1288C94.6954 25.1569 94.6883 25.1851 94.6742 25.2133C94.6742 25.2274 94.6672 25.2344 94.6531 25.2344C94.639 25.2767 94.6178 25.3119 94.5896 25.3401L92.1562 28.1714C92.0716 28.256 91.9799 28.3123 91.8811 28.3405C91.867 28.3405 91.8529 28.3405 91.8388 28.3405H77.8097C77.711 28.3405 77.6263 28.2982 77.5558 28.2137Z"/>
<path d="M99.1178 28.3193L96.4305 25.2133V5.7105C96.4305 5.58372 96.4658 5.46398 96.5363 5.35129L98.9909 2.03392C99.0896 1.90714 99.2095 1.84375 99.3506 1.84375H103.075C103.202 1.84375 103.308 1.9001 103.392 2.01279C103.491 2.11139 103.54 2.23817 103.54 2.39312V21.2197H108.026L110.735 24.347V5.7105C110.735 5.58372 110.77 5.46398 110.84 5.35129L113.295 2.03392C113.394 1.90714 113.514 1.84375 113.655 1.84375H117.379C117.506 1.84375 117.612 1.9001 117.696 2.01279C117.795 2.11139 117.844 2.23817 117.844 2.39312V25.2133L115.136 28.3193H99.1178Z"/>
<path d="M119.876 28.3405C119.777 28.3405 119.692 28.3053 119.622 28.2348C119.565 28.1644 119.537 28.0869 119.537 28.0024V5.13999C119.537 5.04139 119.565 4.94983 119.622 4.86531C119.636 4.85122 119.643 4.83713 119.643 4.82305L122.098 2.01279C122.196 1.9001 122.316 1.84375 122.457 1.84375H126.308C126.407 1.84375 126.485 1.87897 126.541 1.9494C126.612 2.00574 126.647 2.08322 126.647 2.18183V24.3681L129.355 21.2409H140.655C140.754 21.2409 140.831 21.2761 140.888 21.3465C140.958 21.4029 140.993 21.4803 140.993 21.579V25.0442C140.993 25.0724 140.993 25.1006 140.993 25.1288C140.979 25.1569 140.972 25.1851 140.972 25.2133C140.958 25.2274 140.951 25.2344 140.951 25.2344C140.937 25.2767 140.916 25.3119 140.888 25.3401L138.433 28.1714C138.363 28.256 138.271 28.3123 138.158 28.3405C138.144 28.3405 138.123 28.3405 138.095 28.3405C138.095 28.3405 138.087 28.3405 138.073 28.3405H119.876Z"/>
<path d="M143.025 28.3405C142.94 28.3405 142.863 28.3053 142.792 28.2348C142.722 28.1644 142.686 28.0869 142.686 28.0024V13.3806L149.267 2.01279C149.338 1.9001 149.436 1.84375 149.563 1.84375H157.371C157.498 1.84375 157.597 1.9001 157.668 2.01279L164.227 13.3595V25.0442C164.227 25.0724 164.227 25.1006 164.227 25.1288C164.213 25.1569 164.206 25.1781 164.206 25.1921C164.192 25.2062 164.185 25.2203 164.185 25.2344C164.171 25.2767 164.15 25.3119 164.121 25.3401L161.667 28.1714C161.596 28.256 161.505 28.3053 161.392 28.3193C161.378 28.3334 161.356 28.3405 161.328 28.3405C161.328 28.3405 161.321 28.3405 161.307 28.3405H157.287C157.244 28.3405 157.202 28.3264 157.16 28.2982C157.131 28.256 157.117 28.2137 157.117 28.1714V23.5863H149.796V25.0442C149.796 25.0724 149.796 25.1006 149.796 25.1288C149.782 25.1569 149.775 25.1781 149.775 25.1921C149.761 25.2062 149.754 25.2203 149.754 25.2344C149.74 25.2767 149.718 25.3119 149.69 25.3401L147.236 28.1714C147.165 28.256 147.073 28.3053 146.961 28.3193C146.946 28.3334 146.925 28.3405 146.897 28.3405C146.897 28.3405 146.89 28.3405 146.876 28.3405H143.025ZM153.457 8.94335L149.796 15.2823V19.149L152.885 16.4867H157.117V15.2612L153.457 8.94335Z"/>
<path d="M193.534 28.3405H179.357L176.669 25.2133V12.0494L179.357 8.94335H176.669V5.13999C176.669 5.0273 176.704 4.92165 176.775 4.82305L179.23 2.01279C179.328 1.9001 179.441 1.84375 179.568 1.84375H193.491C193.632 1.84375 193.752 1.9001 193.851 2.01279L196.285 4.82305C196.369 4.92165 196.411 5.0273 196.411 5.13999V8.94335H183.779V21.2409H189.302V14.3103H193.703L196.411 17.4375V25.0865C196.411 25.1006 196.404 25.1147 196.39 25.1288C196.39 25.1569 196.383 25.1851 196.369 25.2133C196.369 25.2274 196.369 25.2344 196.369 25.2344C196.341 25.2767 196.313 25.3119 196.285 25.3401L193.851 28.1714C193.766 28.256 193.675 28.3123 193.576 28.3405C193.562 28.3405 193.548 28.3405 193.534 28.3405Z"/>
<path d="M198.464 28.3405C198.379 28.3405 198.302 28.3053 198.231 28.2348C198.161 28.1644 198.125 28.0869 198.125 28.0024V13.3806L204.706 2.01279C204.777 1.9001 204.875 1.84375 205.002 1.84375H212.81C212.937 1.84375 213.036 1.9001 213.107 2.01279L219.666 13.3595V25.0442C219.666 25.0724 219.666 25.1006 219.666 25.1288C219.652 25.1569 219.645 25.1781 219.645 25.1921C219.631 25.2062 219.624 25.2203 219.624 25.2344C219.61 25.2767 219.589 25.3119 219.561 25.3401L217.106 28.1714C217.035 28.256 216.944 28.3053 216.831 28.3193C216.817 28.3334 216.796 28.3405 216.767 28.3405C216.767 28.3405 216.76 28.3405 216.746 28.3405H212.726C212.684 28.3405 212.641 28.3264 212.599 28.2982C212.571 28.256 212.557 28.2137 212.557 28.1714V23.5863H205.235V25.0442C205.235 25.0724 205.235 25.1006 205.235 25.1288C205.221 25.1569 205.214 25.1781 205.214 25.1921C205.2 25.2062 205.193 25.2203 205.193 25.2344C205.179 25.2767 205.158 25.3119 205.129 25.3401L202.675 28.1714C202.604 28.256 202.513 28.3053 202.4 28.3193C202.386 28.3334 202.365 28.3405 202.336 28.3405C202.336 28.3405 202.329 28.3405 202.315 28.3405H198.464ZM208.896 8.94335L205.235 15.2823V19.149L208.325 16.4867H212.557V15.2612L208.896 8.94335Z"/>
<path d="M221.698 28.3405C221.599 28.3405 221.514 28.3053 221.444 28.2348C221.387 28.1644 221.359 28.0869 221.359 28.0024V12.0494L224.046 8.94335H221.698C221.599 8.94335 221.514 8.90814 221.444 8.8377C221.387 8.76727 221.359 8.68979 221.359 8.60528V5.13999C221.359 5.04139 221.387 4.94983 221.444 4.86531C221.444 4.85122 221.451 4.83713 221.465 4.82305L223.919 2.01279C224.018 1.9001 224.138 1.84375 224.279 1.84375H248.55C248.691 1.84375 248.811 1.9001 248.909 2.01279L251.343 4.82305C251.427 4.92165 251.47 5.0273 251.47 5.13999V25.0442C251.47 25.0724 251.463 25.1006 251.449 25.1288C251.449 25.1569 251.442 25.1851 251.427 25.2133C251.427 25.2274 251.427 25.2344 251.427 25.2344C251.399 25.2767 251.371 25.3119 251.343 25.3401L248.909 28.1714C248.825 28.256 248.733 28.3123 248.634 28.3405C248.606 28.3405 248.585 28.3405 248.571 28.3405C248.557 28.3405 248.55 28.3405 248.55 28.3405H244.699C244.6 28.3405 244.515 28.3053 244.445 28.2348C244.388 28.1644 244.36 28.0869 244.36 28.0024V8.94335H239.959V25.0442C239.959 25.0724 239.959 25.1006 239.959 25.1288C239.959 25.1569 239.952 25.1851 239.938 25.2133C239.938 25.2274 239.931 25.2344 239.916 25.2344C239.902 25.2767 239.881 25.3119 239.853 25.3401L237.398 28.1714C237.328 28.256 237.236 28.3123 237.123 28.3405C237.109 28.3405 237.095 28.3405 237.081 28.3405C237.067 28.3405 237.06 28.3405 237.06 28.3405H233.188C233.103 28.3405 233.025 28.3053 232.955 28.2348C232.884 28.1644 232.849 28.0869 232.849 28.0024V8.94335H228.469V25.0442C228.469 25.0724 228.462 25.1006 228.448 25.1288C228.448 25.1569 228.441 25.1851 228.427 25.2133C228.427 25.2274 228.427 25.2344 228.427 25.2344C228.398 25.2767 228.37 25.3119 228.342 25.3401L225.909 28.1714C225.824 28.256 225.732 28.3123 225.633 28.3405C225.605 28.3405 225.584 28.3405 225.57 28.3405C225.556 28.3405 225.549 28.3405 225.549 28.3405H221.698Z"/>
<path d="M270.069 28.3405H255.892L253.184 25.2133V5.13999C253.184 5.0273 253.226 4.92165 253.311 4.82305L255.765 2.01279C255.864 1.9001 255.977 1.84375 256.104 1.84375H270.027C270.154 1.84375 270.267 1.9001 270.366 2.01279L272.82 4.82305C272.905 4.92165 272.947 5.0273 272.947 5.13999V8.60528C272.947 8.68979 272.912 8.76727 272.841 8.8377C272.771 8.90814 272.693 8.94335 272.609 8.94335H260.294V11.5423H265.668C265.725 11.5423 265.781 11.5564 265.837 11.5846C265.95 11.6409 266.007 11.7395 266.007 11.8804V15.7894C266.007 15.888 265.971 15.9725 265.901 16.043L265.837 16.1063L262.981 18.5574C262.924 18.6137 262.854 18.6419 262.769 18.6419H260.294V24.347L263.002 21.2409H272.609C272.693 21.2409 272.771 21.2761 272.841 21.3465C272.912 21.4029 272.947 21.4803 272.947 21.579V25.0442C272.947 25.0724 272.94 25.1006 272.926 25.1288C272.926 25.1569 272.919 25.1851 272.905 25.2133C272.905 25.2274 272.898 25.2344 272.884 25.2344C272.87 25.2767 272.848 25.3119 272.82 25.3401L270.366 28.1714C270.295 28.256 270.211 28.3123 270.112 28.3405C270.098 28.3405 270.084 28.3405 270.069 28.3405Z"/>
</mask>
<path d="M5.69647 28.3405C5.59772 28.3405 5.51308 28.3053 5.44255 28.2348C5.38612 28.1644 5.35791 28.0869 5.35791 28.0024V12.1762C5.35791 12.1058 5.38612 12.0353 5.44255 11.9649L8.04523 8.94335H5.69647C5.59772 8.94335 5.51308 8.90814 5.44255 8.8377C5.38612 8.76727 5.35791 8.68979 5.35791 8.60528V2.18183C5.35791 2.08322 5.38612 2.00574 5.44255 1.9494C5.51308 1.87897 5.59772 1.84375 5.69647 1.84375H23.9575C24.0986 1.84375 24.2185 1.9001 24.3173 2.01279L26.7507 4.82305C26.8353 4.92165 26.8776 5.0273 26.8776 5.13999V25.0442C26.8776 25.1569 26.8353 25.2555 26.7507 25.3401L24.3173 28.1714C24.2326 28.256 24.1409 28.3123 24.0422 28.3405C24.014 28.3405 23.9928 28.3405 23.9787 28.3405H5.69647ZM12.4677 8.94335V24.3681L15.155 21.2409H19.7679V8.94335H12.4677Z" fill="#17C1F6"/>
<path d="M28.9301 28.3405C28.8314 28.3405 28.7468 28.3053 28.6762 28.2348C28.6198 28.1644 28.5916 28.0869 28.5916 28.0024V12.1762C28.5916 12.1058 28.6198 12.0353 28.6762 11.9649L31.2789 8.94335H28.9301C28.8314 8.94335 28.7468 8.90814 28.6762 8.8377C28.6198 8.76727 28.5916 8.68979 28.5916 8.60528V5.13999C28.5916 5.0273 28.6268 4.92165 28.6974 4.82305L31.1519 1.99166C31.2507 1.89305 31.3635 1.84375 31.4905 1.84375H47.1277C47.2688 1.84375 47.3887 1.89305 47.4875 1.99166L49.9209 4.82305C50.0055 4.92165 50.0478 5.0273 50.0478 5.13999V17.522C50.0478 17.5502 50.0408 17.5784 50.0267 17.6066C50.0267 17.6347 50.0196 17.6629 50.0055 17.6911C50.0055 17.7052 49.9984 17.7122 49.9843 17.7122C49.9702 17.7545 49.9491 17.7897 49.9209 17.8179L47.4875 20.6492C47.4028 20.7338 47.3111 20.7831 47.2124 20.7972C47.1842 20.8112 47.163 20.8183 47.1489 20.8183C47.1348 20.8183 47.1277 20.8183 47.1277 20.8183H46.6834L49.3707 23.2059V27.3263L48.3127 28.3616H44.1865L36.6112 20.8183H35.7013V25.0442C35.7013 25.0724 35.6943 25.1006 35.6802 25.1288C35.6802 25.1569 35.6731 25.1851 35.659 25.2133C35.659 25.2274 35.652 25.2344 35.6379 25.2344C35.6238 25.2767 35.6026 25.3119 35.5744 25.3401L33.141 28.1714C33.0563 28.256 32.9646 28.3053 32.8659 28.3193C32.8377 28.3334 32.8165 28.3405 32.8024 28.3405C32.7883 28.3405 32.7813 28.3405 32.7813 28.3405H28.9301ZM35.7013 8.94335V13.7187H42.9381V8.94335H35.7013Z" fill="#17C1F6"/>
<path d="M52.0792 28.3405C51.9945 28.3405 51.9169 28.3053 51.8464 28.2348C51.7759 28.1644 51.7406 28.0869 51.7406 28.0024V13.3806L58.3214 2.01279C58.3919 1.9001 58.4907 1.84375 58.6176 1.84375H66.4257C66.5526 1.84375 66.6514 1.9001 66.7219 2.01279L73.2815 13.3595V25.0442C73.2815 25.0724 73.2815 25.1006 73.2815 25.1288C73.2674 25.1569 73.2603 25.1781 73.2603 25.1921C73.2462 25.2062 73.2392 25.2203 73.2392 25.2344C73.2251 25.2767 73.2039 25.3119 73.1757 25.3401L70.7211 28.1714C70.6506 28.256 70.5589 28.3053 70.446 28.3193C70.4319 28.3334 70.4108 28.3405 70.3826 28.3405C70.3826 28.3405 70.3755 28.3405 70.3614 28.3405H66.341C66.2987 28.3405 66.2564 28.3264 66.2141 28.2982C66.1858 28.256 66.1717 28.2137 66.1717 28.1714V23.5863H58.8504V25.0442C58.8504 25.0724 58.8504 25.1006 58.8504 25.1288C58.8363 25.1569 58.8292 25.1781 58.8292 25.1921C58.8151 25.2062 58.8081 25.2203 58.8081 25.2344C58.7939 25.2767 58.7728 25.3119 58.7446 25.3401L56.29 28.1714C56.2195 28.256 56.1278 28.3053 56.0149 28.3193C56.0008 28.3334 55.9797 28.3405 55.9515 28.3405C55.9515 28.3405 55.9444 28.3405 55.9303 28.3405H52.0792ZM62.5111 8.94335L58.8504 15.2823V19.149L61.9397 16.4867H66.1717V15.2612L62.5111 8.94335Z" fill="#17C1F6"/>
<path d="M77.5558 28.2137L75.0378 25.3189C74.9954 25.2485 74.9743 25.171 74.9743 25.0865V5.13999C74.9743 5.0273 75.0096 4.92165 75.0801 4.82305L77.5346 2.01279C77.6334 1.9001 77.7462 1.84375 77.8732 1.84375H91.7965C91.9234 1.84375 92.0434 1.9001 92.1562 2.01279L94.5896 4.82305C94.6742 4.92165 94.7166 5.0273 94.7166 5.13999V8.60528C94.7166 8.68979 94.6813 8.76727 94.6108 8.8377C94.5402 8.90814 94.4626 8.94335 94.378 8.94335H82.084V24.347L84.7714 21.2409H94.378C94.4626 21.2409 94.5402 21.2761 94.6108 21.3465C94.6813 21.4029 94.7166 21.4803 94.7166 21.579V25.0442C94.7166 25.0724 94.7095 25.1006 94.6954 25.1288C94.6954 25.1569 94.6883 25.1851 94.6742 25.2133C94.6742 25.2274 94.6672 25.2344 94.6531 25.2344C94.639 25.2767 94.6178 25.3119 94.5896 25.3401L92.1562 28.1714C92.0716 28.256 91.9799 28.3123 91.8811 28.3405C91.867 28.3405 91.8529 28.3405 91.8388 28.3405H77.8097C77.711 28.3405 77.6263 28.2982 77.5558 28.2137Z" fill="#17C1F6"/>
<path d="M99.1178 28.3193L96.4305 25.2133V5.7105C96.4305 5.58372 96.4658 5.46398 96.5363 5.35129L98.9909 2.03392C99.0896 1.90714 99.2095 1.84375 99.3506 1.84375H103.075C103.202 1.84375 103.308 1.9001 103.392 2.01279C103.491 2.11139 103.54 2.23817 103.54 2.39312V21.2197H108.026L110.735 24.347V5.7105C110.735 5.58372 110.77 5.46398 110.84 5.35129L113.295 2.03392C113.394 1.90714 113.514 1.84375 113.655 1.84375H117.379C117.506 1.84375 117.612 1.9001 117.696 2.01279C117.795 2.11139 117.844 2.23817 117.844 2.39312V25.2133L115.136 28.3193H99.1178Z" fill="#17C1F6"/>
<path d="M119.876 28.3405C119.777 28.3405 119.692 28.3053 119.622 28.2348C119.565 28.1644 119.537 28.0869 119.537 28.0024V5.13999C119.537 5.04139 119.565 4.94983 119.622 4.86531C119.636 4.85122 119.643 4.83713 119.643 4.82305L122.098 2.01279C122.196 1.9001 122.316 1.84375 122.457 1.84375H126.308C126.407 1.84375 126.485 1.87897 126.541 1.9494C126.612 2.00574 126.647 2.08322 126.647 2.18183V24.3681L129.355 21.2409H140.655C140.754 21.2409 140.831 21.2761 140.888 21.3465C140.958 21.4029 140.993 21.4803 140.993 21.579V25.0442C140.993 25.0724 140.993 25.1006 140.993 25.1288C140.979 25.1569 140.972 25.1851 140.972 25.2133C140.958 25.2274 140.951 25.2344 140.951 25.2344C140.937 25.2767 140.916 25.3119 140.888 25.3401L138.433 28.1714C138.363 28.256 138.271 28.3123 138.158 28.3405C138.144 28.3405 138.123 28.3405 138.095 28.3405C138.095 28.3405 138.087 28.3405 138.073 28.3405H119.876Z" fill="#17C1F6"/>
<path d="M143.025 28.3405C142.94 28.3405 142.863 28.3053 142.792 28.2348C142.722 28.1644 142.686 28.0869 142.686 28.0024V13.3806L149.267 2.01279C149.338 1.9001 149.436 1.84375 149.563 1.84375H157.371C157.498 1.84375 157.597 1.9001 157.668 2.01279L164.227 13.3595V25.0442C164.227 25.0724 164.227 25.1006 164.227 25.1288C164.213 25.1569 164.206 25.1781 164.206 25.1921C164.192 25.2062 164.185 25.2203 164.185 25.2344C164.171 25.2767 164.15 25.3119 164.121 25.3401L161.667 28.1714C161.596 28.256 161.505 28.3053 161.392 28.3193C161.378 28.3334 161.356 28.3405 161.328 28.3405C161.328 28.3405 161.321 28.3405 161.307 28.3405H157.287C157.244 28.3405 157.202 28.3264 157.16 28.2982C157.131 28.256 157.117 28.2137 157.117 28.1714V23.5863H149.796V25.0442C149.796 25.0724 149.796 25.1006 149.796 25.1288C149.782 25.1569 149.775 25.1781 149.775 25.1921C149.761 25.2062 149.754 25.2203 149.754 25.2344C149.74 25.2767 149.718 25.3119 149.69 25.3401L147.236 28.1714C147.165 28.256 147.073 28.3053 146.961 28.3193C146.946 28.3334 146.925 28.3405 146.897 28.3405C146.897 28.3405 146.89 28.3405 146.876 28.3405H143.025ZM153.457 8.94335L149.796 15.2823V19.149L152.885 16.4867H157.117V15.2612L153.457 8.94335Z" fill="#17C1F6"/>
<path d="M193.534 28.3405H179.357L176.669 25.2133V12.0494L179.357 8.94335H176.669V5.13999C176.669 5.0273 176.704 4.92165 176.775 4.82305L179.23 2.01279C179.328 1.9001 179.441 1.84375 179.568 1.84375H193.491C193.632 1.84375 193.752 1.9001 193.851 2.01279L196.285 4.82305C196.369 4.92165 196.411 5.0273 196.411 5.13999V8.94335H183.779V21.2409H189.302V14.3103H193.703L196.411 17.4375V25.0865C196.411 25.1006 196.404 25.1147 196.39 25.1288C196.39 25.1569 196.383 25.1851 196.369 25.2133C196.369 25.2274 196.369 25.2344 196.369 25.2344C196.341 25.2767 196.313 25.3119 196.285 25.3401L193.851 28.1714C193.766 28.256 193.675 28.3123 193.576 28.3405C193.562 28.3405 193.548 28.3405 193.534 28.3405Z" fill="#17C1F6"/>
<path d="M198.464 28.3405C198.379 28.3405 198.302 28.3053 198.231 28.2348C198.161 28.1644 198.125 28.0869 198.125 28.0024V13.3806L204.706 2.01279C204.777 1.9001 204.875 1.84375 205.002 1.84375H212.81C212.937 1.84375 213.036 1.9001 213.107 2.01279L219.666 13.3595V25.0442C219.666 25.0724 219.666 25.1006 219.666 25.1288C219.652 25.1569 219.645 25.1781 219.645 25.1921C219.631 25.2062 219.624 25.2203 219.624 25.2344C219.61 25.2767 219.589 25.3119 219.561 25.3401L217.106 28.1714C217.035 28.256 216.944 28.3053 216.831 28.3193C216.817 28.3334 216.796 28.3405 216.767 28.3405C216.767 28.3405 216.76 28.3405 216.746 28.3405H212.726C212.684 28.3405 212.641 28.3264 212.599 28.2982C212.571 28.256 212.557 28.2137 212.557 28.1714V23.5863H205.235V25.0442C205.235 25.0724 205.235 25.1006 205.235 25.1288C205.221 25.1569 205.214 25.1781 205.214 25.1921C205.2 25.2062 205.193 25.2203 205.193 25.2344C205.179 25.2767 205.158 25.3119 205.129 25.3401L202.675 28.1714C202.604 28.256 202.513 28.3053 202.4 28.3193C202.386 28.3334 202.365 28.3405 202.336 28.3405C202.336 28.3405 202.329 28.3405 202.315 28.3405H198.464ZM208.896 8.94335L205.235 15.2823V19.149L208.325 16.4867H212.557V15.2612L208.896 8.94335Z" fill="#17C1F6"/>
<path d="M221.698 28.3405C221.599 28.3405 221.514 28.3053 221.444 28.2348C221.387 28.1644 221.359 28.0869 221.359 28.0024V12.0494L224.046 8.94335H221.698C221.599 8.94335 221.514 8.90814 221.444 8.8377C221.387 8.76727 221.359 8.68979 221.359 8.60528V5.13999C221.359 5.04139 221.387 4.94983 221.444 4.86531C221.444 4.85122 221.451 4.83713 221.465 4.82305L223.919 2.01279C224.018 1.9001 224.138 1.84375 224.279 1.84375H248.55C248.691 1.84375 248.811 1.9001 248.909 2.01279L251.343 4.82305C251.427 4.92165 251.47 5.0273 251.47 5.13999V25.0442C251.47 25.0724 251.463 25.1006 251.449 25.1288C251.449 25.1569 251.442 25.1851 251.427 25.2133C251.427 25.2274 251.427 25.2344 251.427 25.2344C251.399 25.2767 251.371 25.3119 251.343 25.3401L248.909 28.1714C248.825 28.256 248.733 28.3123 248.634 28.3405C248.606 28.3405 248.585 28.3405 248.571 28.3405C248.557 28.3405 248.55 28.3405 248.55 28.3405H244.699C244.6 28.3405 244.515 28.3053 244.445 28.2348C244.388 28.1644 244.36 28.0869 244.36 28.0024V8.94335H239.959V25.0442C239.959 25.0724 239.959 25.1006 239.959 25.1288C239.959 25.1569 239.952 25.1851 239.938 25.2133C239.938 25.2274 239.931 25.2344 239.916 25.2344C239.902 25.2767 239.881 25.3119 239.853 25.3401L237.398 28.1714C237.328 28.256 237.236 28.3123 237.123 28.3405C237.109 28.3405 237.095 28.3405 237.081 28.3405C237.067 28.3405 237.06 28.3405 237.06 28.3405H233.188C233.103 28.3405 233.025 28.3053 232.955 28.2348C232.884 28.1644 232.849 28.0869 232.849 28.0024V8.94335H228.469V25.0442C228.469 25.0724 228.462 25.1006 228.448 25.1288C228.448 25.1569 228.441 25.1851 228.427 25.2133C228.427 25.2274 228.427 25.2344 228.427 25.2344C228.398 25.2767 228.37 25.3119 228.342 25.3401L225.909 28.1714C225.824 28.256 225.732 28.3123 225.633 28.3405C225.605 28.3405 225.584 28.3405 225.57 28.3405C225.556 28.3405 225.549 28.3405 225.549 28.3405H221.698Z" fill="#17C1F6"/>
<path d="M270.069 28.3405H255.892L253.184 25.2133V5.13999C253.184 5.0273 253.226 4.92165 253.311 4.82305L255.765 2.01279C255.864 1.9001 255.977 1.84375 256.104 1.84375H270.027C270.154 1.84375 270.267 1.9001 270.366 2.01279L272.82 4.82305C272.905 4.92165 272.947 5.0273 272.947 5.13999V8.60528C272.947 8.68979 272.912 8.76727 272.841 8.8377C272.771 8.90814 272.693 8.94335 272.609 8.94335H260.294V11.5423H265.668C265.725 11.5423 265.781 11.5564 265.837 11.5846C265.95 11.6409 266.007 11.7395 266.007 11.8804V15.7894C266.007 15.888 265.971 15.9725 265.901 16.043L265.837 16.1063L262.981 18.5574C262.924 18.6137 262.854 18.6419 262.769 18.6419H260.294V24.347L263.002 21.2409H272.609C272.693 21.2409 272.771 21.2761 272.841 21.3465C272.912 21.4029 272.947 21.4803 272.947 21.579V25.0442C272.947 25.0724 272.94 25.1006 272.926 25.1288C272.926 25.1569 272.919 25.1851 272.905 25.2133C272.905 25.2274 272.898 25.2344 272.884 25.2344C272.87 25.2767 272.848 25.3119 272.82 25.3401L270.366 28.1714C270.295 28.256 270.211 28.3123 270.112 28.3405C270.098 28.3405 270.084 28.3405 270.069 28.3405Z" fill="#17C1F6"/>
<path d="M5.69647 28.3405C5.59772 28.3405 5.51308 28.3053 5.44255 28.2348C5.38612 28.1644 5.35791 28.0869 5.35791 28.0024V12.1762C5.35791 12.1058 5.38612 12.0353 5.44255 11.9649L8.04523 8.94335H5.69647C5.59772 8.94335 5.51308 8.90814 5.44255 8.8377C5.38612 8.76727 5.35791 8.68979 5.35791 8.60528V2.18183C5.35791 2.08322 5.38612 2.00574 5.44255 1.9494C5.51308 1.87897 5.59772 1.84375 5.69647 1.84375H23.9575C24.0986 1.84375 24.2185 1.9001 24.3173 2.01279L26.7507 4.82305C26.8353 4.92165 26.8776 5.0273 26.8776 5.13999V25.0442C26.8776 25.1569 26.8353 25.2555 26.7507 25.3401L24.3173 28.1714C24.2326 28.256 24.1409 28.3123 24.0422 28.3405C24.014 28.3405 23.9928 28.3405 23.9787 28.3405H5.69647ZM12.4677 8.94335V24.3681L15.155 21.2409H19.7679V8.94335H12.4677Z" stroke="black" stroke-width="2" mask="url(#path-2-outside-1_363_3092)"/>
<path d="M28.9301 28.3405C28.8314 28.3405 28.7468 28.3053 28.6762 28.2348C28.6198 28.1644 28.5916 28.0869 28.5916 28.0024V12.1762C28.5916 12.1058 28.6198 12.0353 28.6762 11.9649L31.2789 8.94335H28.9301C28.8314 8.94335 28.7468 8.90814 28.6762 8.8377C28.6198 8.76727 28.5916 8.68979 28.5916 8.60528V5.13999C28.5916 5.0273 28.6268 4.92165 28.6974 4.82305L31.1519 1.99166C31.2507 1.89305 31.3635 1.84375 31.4905 1.84375H47.1277C47.2688 1.84375 47.3887 1.89305 47.4875 1.99166L49.9209 4.82305C50.0055 4.92165 50.0478 5.0273 50.0478 5.13999V17.522C50.0478 17.5502 50.0408 17.5784 50.0267 17.6066C50.0267 17.6347 50.0196 17.6629 50.0055 17.6911C50.0055 17.7052 49.9984 17.7122 49.9843 17.7122C49.9702 17.7545 49.9491 17.7897 49.9209 17.8179L47.4875 20.6492C47.4028 20.7338 47.3111 20.7831 47.2124 20.7972C47.1842 20.8112 47.163 20.8183 47.1489 20.8183C47.1348 20.8183 47.1277 20.8183 47.1277 20.8183H46.6834L49.3707 23.2059V27.3263L48.3127 28.3616H44.1865L36.6112 20.8183H35.7013V25.0442C35.7013 25.0724 35.6943 25.1006 35.6802 25.1288C35.6802 25.1569 35.6731 25.1851 35.659 25.2133C35.659 25.2274 35.652 25.2344 35.6379 25.2344C35.6238 25.2767 35.6026 25.3119 35.5744 25.3401L33.141 28.1714C33.0563 28.256 32.9646 28.3053 32.8659 28.3193C32.8377 28.3334 32.8165 28.3405 32.8024 28.3405C32.7883 28.3405 32.7813 28.3405 32.7813 28.3405H28.9301ZM35.7013 8.94335V13.7187H42.9381V8.94335H35.7013Z" stroke="black" stroke-width="2" mask="url(#path-2-outside-1_363_3092)"/>
<path d="M52.0792 28.3405C51.9945 28.3405 51.9169 28.3053 51.8464 28.2348C51.7759 28.1644 51.7406 28.0869 51.7406 28.0024V13.3806L58.3214 2.01279C58.3919 1.9001 58.4907 1.84375 58.6176 1.84375H66.4257C66.5526 1.84375 66.6514 1.9001 66.7219 2.01279L73.2815 13.3595V25.0442C73.2815 25.0724 73.2815 25.1006 73.2815 25.1288C73.2674 25.1569 73.2603 25.1781 73.2603 25.1921C73.2462 25.2062 73.2392 25.2203 73.2392 25.2344C73.2251 25.2767 73.2039 25.3119 73.1757 25.3401L70.7211 28.1714C70.6506 28.256 70.5589 28.3053 70.446 28.3193C70.4319 28.3334 70.4108 28.3405 70.3826 28.3405C70.3826 28.3405 70.3755 28.3405 70.3614 28.3405H66.341C66.2987 28.3405 66.2564 28.3264 66.2141 28.2982C66.1858 28.256 66.1717 28.2137 66.1717 28.1714V23.5863H58.8504V25.0442C58.8504 25.0724 58.8504 25.1006 58.8504 25.1288C58.8363 25.1569 58.8292 25.1781 58.8292 25.1921C58.8151 25.2062 58.8081 25.2203 58.8081 25.2344C58.7939 25.2767 58.7728 25.3119 58.7446 25.3401L56.29 28.1714C56.2195 28.256 56.1278 28.3053 56.0149 28.3193C56.0008 28.3334 55.9797 28.3405 55.9515 28.3405C55.9515 28.3405 55.9444 28.3405 55.9303 28.3405H52.0792ZM62.5111 8.94335L58.8504 15.2823V19.149L61.9397 16.4867H66.1717V15.2612L62.5111 8.94335Z" stroke="black" stroke-width="2" mask="url(#path-2-outside-1_363_3092)"/>
<path d="M77.5558 28.2137L75.0378 25.3189C74.9954 25.2485 74.9743 25.171 74.9743 25.0865V5.13999C74.9743 5.0273 75.0096 4.92165 75.0801 4.82305L77.5346 2.01279C77.6334 1.9001 77.7462 1.84375 77.8732 1.84375H91.7965C91.9234 1.84375 92.0434 1.9001 92.1562 2.01279L94.5896 4.82305C94.6742 4.92165 94.7166 5.0273 94.7166 5.13999V8.60528C94.7166 8.68979 94.6813 8.76727 94.6108 8.8377C94.5402 8.90814 94.4626 8.94335 94.378 8.94335H82.084V24.347L84.7714 21.2409H94.378C94.4626 21.2409 94.5402 21.2761 94.6108 21.3465C94.6813 21.4029 94.7166 21.4803 94.7166 21.579V25.0442C94.7166 25.0724 94.7095 25.1006 94.6954 25.1288C94.6954 25.1569 94.6883 25.1851 94.6742 25.2133C94.6742 25.2274 94.6672 25.2344 94.6531 25.2344C94.639 25.2767 94.6178 25.3119 94.5896 25.3401L92.1562 28.1714C92.0716 28.256 91.9799 28.3123 91.8811 28.3405C91.867 28.3405 91.8529 28.3405 91.8388 28.3405H77.8097C77.711 28.3405 77.6263 28.2982 77.5558 28.2137Z" stroke="black" stroke-width="2" mask="url(#path-2-outside-1_363_3092)"/>
<path d="M99.1178 28.3193L96.4305 25.2133V5.7105C96.4305 5.58372 96.4658 5.46398 96.5363 5.35129L98.9909 2.03392C99.0896 1.90714 99.2095 1.84375 99.3506 1.84375H103.075C103.202 1.84375 103.308 1.9001 103.392 2.01279C103.491 2.11139 103.54 2.23817 103.54 2.39312V21.2197H108.026L110.735 24.347V5.7105C110.735 5.58372 110.77 5.46398 110.84 5.35129L113.295 2.03392C113.394 1.90714 113.514 1.84375 113.655 1.84375H117.379C117.506 1.84375 117.612 1.9001 117.696 2.01279C117.795 2.11139 117.844 2.23817 117.844 2.39312V25.2133L115.136 28.3193H99.1178Z" stroke="black" stroke-width="2" mask="url(#path-2-outside-1_363_3092)"/>
<path d="M119.876 28.3405C119.777 28.3405 119.692 28.3053 119.622 28.2348C119.565 28.1644 119.537 28.0869 119.537 28.0024V5.13999C119.537 5.04139 119.565 4.94983 119.622 4.86531C119.636 4.85122 119.643 4.83713 119.643 4.82305L122.098 2.01279C122.196 1.9001 122.316 1.84375 122.457 1.84375H126.308C126.407 1.84375 126.485 1.87897 126.541 1.9494C126.612 2.00574 126.647 2.08322 126.647 2.18183V24.3681L129.355 21.2409H140.655C140.754 21.2409 140.831 21.2761 140.888 21.3465C140.958 21.4029 140.993 21.4803 140.993 21.579V25.0442C140.993 25.0724 140.993 25.1006 140.993 25.1288C140.979 25.1569 140.972 25.1851 140.972 25.2133C140.958 25.2274 140.951 25.2344 140.951 25.2344C140.937 25.2767 140.916 25.3119 140.888 25.3401L138.433 28.1714C138.363 28.256 138.271 28.3123 138.158 28.3405C138.144 28.3405 138.123 28.3405 138.095 28.3405C138.095 28.3405 138.087 28.3405 138.073 28.3405H119.876Z" stroke="black" stroke-width="2" mask="url(#path-2-outside-1_363_3092)"/>
<path d="M143.025 28.3405C142.94 28.3405 142.863 28.3053 142.792 28.2348C142.722 28.1644 142.686 28.0869 142.686 28.0024V13.3806L149.267 2.01279C149.338 1.9001 149.436 1.84375 149.563 1.84375H157.371C157.498 1.84375 157.597 1.9001 157.668 2.01279L164.227 13.3595V25.0442C164.227 25.0724 164.227 25.1006 164.227 25.1288C164.213 25.1569 164.206 25.1781 164.206 25.1921C164.192 25.2062 164.185 25.2203 164.185 25.2344C164.171 25.2767 164.15 25.3119 164.121 25.3401L161.667 28.1714C161.596 28.256 161.505 28.3053 161.392 28.3193C161.378 28.3334 161.356 28.3405 161.328 28.3405C161.328 28.3405 161.321 28.3405 161.307 28.3405H157.287C157.244 28.3405 157.202 28.3264 157.16 28.2982C157.131 28.256 157.117 28.2137 157.117 28.1714V23.5863H149.796V25.0442C149.796 25.0724 149.796 25.1006 149.796 25.1288C149.782 25.1569 149.775 25.1781 149.775 25.1921C149.761 25.2062 149.754 25.2203 149.754 25.2344C149.74 25.2767 149.718 25.3119 149.69 25.3401L147.236 28.1714C147.165 28.256 147.073 28.3053 146.961 28.3193C146.946 28.3334 146.925 28.3405 146.897 28.3405C146.897 28.3405 146.89 28.3405 146.876 28.3405H143.025ZM153.457 8.94335L149.796 15.2823V19.149L152.885 16.4867H157.117V15.2612L153.457 8.94335Z" stroke="black" stroke-width="2" mask="url(#path-2-outside-1_363_3092)"/>
<path d="M193.534 28.3405H179.357L176.669 25.2133V12.0494L179.357 8.94335H176.669V5.13999C176.669 5.0273 176.704 4.92165 176.775 4.82305L179.23 2.01279C179.328 1.9001 179.441 1.84375 179.568 1.84375H193.491C193.632 1.84375 193.752 1.9001 193.851 2.01279L196.285 4.82305C196.369 4.92165 196.411 5.0273 196.411 5.13999V8.94335H183.779V21.2409H189.302V14.3103H193.703L196.411 17.4375V25.0865C196.411 25.1006 196.404 25.1147 196.39 25.1288C196.39 25.1569 196.383 25.1851 196.369 25.2133C196.369 25.2274 196.369 25.2344 196.369 25.2344C196.341 25.2767 196.313 25.3119 196.285 25.3401L193.851 28.1714C193.766 28.256 193.675 28.3123 193.576 28.3405C193.562 28.3405 193.548 28.3405 193.534 28.3405Z" stroke="black" stroke-width="2" mask="url(#path-2-outside-1_363_3092)"/>
<path d="M198.464 28.3405C198.379 28.3405 198.302 28.3053 198.231 28.2348C198.161 28.1644 198.125 28.0869 198.125 28.0024V13.3806L204.706 2.01279C204.777 1.9001 204.875 1.84375 205.002 1.84375H212.81C212.937 1.84375 213.036 1.9001 213.107 2.01279L219.666 13.3595V25.0442C219.666 25.0724 219.666 25.1006 219.666 25.1288C219.652 25.1569 219.645 25.1781 219.645 25.1921C219.631 25.2062 219.624 25.2203 219.624 25.2344C219.61 25.2767 219.589 25.3119 219.561 25.3401L217.106 28.1714C217.035 28.256 216.944 28.3053 216.831 28.3193C216.817 28.3334 216.796 28.3405 216.767 28.3405C216.767 28.3405 216.76 28.3405 216.746 28.3405H212.726C212.684 28.3405 212.641 28.3264 212.599 28.2982C212.571 28.256 212.557 28.2137 212.557 28.1714V23.5863H205.235V25.0442C205.235 25.0724 205.235 25.1006 205.235 25.1288C205.221 25.1569 205.214 25.1781 205.214 25.1921C205.2 25.2062 205.193 25.2203 205.193 25.2344C205.179 25.2767 205.158 25.3119 205.129 25.3401L202.675 28.1714C202.604 28.256 202.513 28.3053 202.4 28.3193C202.386 28.3334 202.365 28.3405 202.336 28.3405C202.336 28.3405 202.329 28.3405 202.315 28.3405H198.464ZM208.896 8.94335L205.235 15.2823V19.149L208.325 16.4867H212.557V15.2612L208.896 8.94335Z" stroke="black" stroke-width="2" mask="url(#path-2-outside-1_363_3092)"/>
<path d="M221.698 28.3405C221.599 28.3405 221.514 28.3053 221.444 28.2348C221.387 28.1644 221.359 28.0869 221.359 28.0024V12.0494L224.046 8.94335H221.698C221.599 8.94335 221.514 8.90814 221.444 8.8377C221.387 8.76727 221.359 8.68979 221.359 8.60528V5.13999C221.359 5.04139 221.387 4.94983 221.444 4.86531C221.444 4.85122 221.451 4.83713 221.465 4.82305L223.919 2.01279C224.018 1.9001 224.138 1.84375 224.279 1.84375H248.55C248.691 1.84375 248.811 1.9001 248.909 2.01279L251.343 4.82305C251.427 4.92165 251.47 5.0273 251.47 5.13999V25.0442C251.47 25.0724 251.463 25.1006 251.449 25.1288C251.449 25.1569 251.442 25.1851 251.427 25.2133C251.427 25.2274 251.427 25.2344 251.427 25.2344C251.399 25.2767 251.371 25.3119 251.343 25.3401L248.909 28.1714C248.825 28.256 248.733 28.3123 248.634 28.3405C248.606 28.3405 248.585 28.3405 248.571 28.3405C248.557 28.3405 248.55 28.3405 248.55 28.3405H244.699C244.6 28.3405 244.515 28.3053 244.445 28.2348C244.388 28.1644 244.36 28.0869 244.36 28.0024V8.94335H239.959V25.0442C239.959 25.0724 239.959 25.1006 239.959 25.1288C239.959 25.1569 239.952 25.1851 239.938 25.2133C239.938 25.2274 239.931 25.2344 239.916 25.2344C239.902 25.2767 239.881 25.3119 239.853 25.3401L237.398 28.1714C237.328 28.256 237.236 28.3123 237.123 28.3405C237.109 28.3405 237.095 28.3405 237.081 28.3405C237.067 28.3405 237.06 28.3405 237.06 28.3405H233.188C233.103 28.3405 233.025 28.3053 232.955 28.2348C232.884 28.1644 232.849 28.0869 232.849 28.0024V8.94335H228.469V25.0442C228.469 25.0724 228.462 25.1006 228.448 25.1288C228.448 25.1569 228.441 25.1851 228.427 25.2133C228.427 25.2274 228.427 25.2344 228.427 25.2344C228.398 25.2767 228.37 25.3119 228.342 25.3401L225.909 28.1714C225.824 28.256 225.732 28.3123 225.633 28.3405C225.605 28.3405 225.584 28.3405 225.57 28.3405C225.556 28.3405 225.549 28.3405 225.549 28.3405H221.698Z" stroke="black" stroke-width="2" mask="url(#path-2-outside-1_363_3092)"/>
<path d="M270.069 28.3405H255.892L253.184 25.2133V5.13999C253.184 5.0273 253.226 4.92165 253.311 4.82305L255.765 2.01279C255.864 1.9001 255.977 1.84375 256.104 1.84375H270.027C270.154 1.84375 270.267 1.9001 270.366 2.01279L272.82 4.82305C272.905 4.92165 272.947 5.0273 272.947 5.13999V8.60528C272.947 8.68979 272.912 8.76727 272.841 8.8377C272.771 8.90814 272.693 8.94335 272.609 8.94335H260.294V11.5423H265.668C265.725 11.5423 265.781 11.5564 265.837 11.5846C265.95 11.6409 266.007 11.7395 266.007 11.8804V15.7894C266.007 15.888 265.971 15.9725 265.901 16.043L265.837 16.1063L262.981 18.5574C262.924 18.6137 262.854 18.6419 262.769 18.6419H260.294V24.347L263.002 21.2409H272.609C272.693 21.2409 272.771 21.2761 272.841 21.3465C272.912 21.4029 272.947 21.4803 272.947 21.579V25.0442C272.947 25.0724 272.94 25.1006 272.926 25.1288C272.926 25.1569 272.919 25.1851 272.905 25.2133C272.905 25.2274 272.898 25.2344 272.884 25.2344C272.87 25.2767 272.848 25.3119 272.82 25.3401L270.366 28.1714C270.295 28.256 270.211 28.3123 270.112 28.3405C270.098 28.3405 270.084 28.3405 270.069 28.3405Z" stroke="black" stroke-width="2" mask="url(#path-2-outside-1_363_3092)"/>
</g>
<defs>
<filter id="filter0_d_363_3092" x="0.35791" y="0.84375" width="277.589" height="36.5178" filterUnits="userSpaceOnUse" color-interpolation-filters="sRGB">
<feFlood flood-opacity="0" result="BackgroundImageFix"/>
<feColorMatrix in="SourceAlpha" type="matrix" values="0 0 0 0 0 0 0 0 0 0 0 0 0 0 0 0 0 0 127 0" result="hardAlpha"/>
<feOffset dy="4"/>
<feGaussianBlur stdDeviation="2"/>
<feComposite in2="hardAlpha" operator="out"/>
<feColorMatrix type="matrix" values="0 0 0 0 0 0 0 0 0 0 0 0 0 0 0 0 0 0 0.25 0"/>
<feBlend mode="normal" in2="BackgroundImageFix" result="effect1_dropShadow_363_3092"/>
<feBlend mode="normal" in="SourceGraphic" in2="effect1_dropShadow_363_3092" result="shape"/>
</filter>
</defs>
</svg>
